<svg width="19" height="19" viewBox="0 0 19 19" fill="none" xmlns="http://www.w3.org/2000/svg">
<g clip-path="url(#clip0_135_3269)">
<path d="M17.0291 5.73958L6.33366 16.4508L1.97949 17.0208L2.54949 12.6667L13.2607 1.97125C13.5066 1.72088 13.7998 1.52194 14.1232 1.38602C14.4467 1.2501 14.794 1.17992 15.1449 1.17958C15.4959 1.17958 15.8435 1.24885 16.1677 1.38342C16.4919 1.51799 16.7864 1.71521 17.0342 1.96379C17.2821 2.21237 17.4784 2.50741 17.612 2.83202C17.7456 3.15662 17.8139 3.50439 17.8128 3.85541C17.8135 4.20573 17.7446 4.5527 17.61 4.87615C17.4755 5.19961 17.278 5.4931 17.0291 5.73958Z" stroke="#1D458A" stroke-width="2" stroke-miterlimit="10"/>
<path d="M11.7803 3.45166L15.5486 7.21999" stroke="#1D458A" stroke-width="2" stroke-miterlimit="10"/>
<path d="M6.33366 16.4429L1.97949 17.0208L2.54949 12.6667C3.44995 12.9056 4.27001 13.3812 4.92449 14.0442C5.60268 14.7015 6.08972 15.5305 6.33366 16.4429Z" stroke="#1D458A" stroke-width="2" stroke-miterlimit="10" stroke-linejoin="round"/>
<path d="M13.6644 5.33583L4.95605 14.0442" stroke="#1D458A" stroke-width="2" stroke-miterlimit="10"/>
</g>
<defs>
<clipPath id="clip0_135_3269">
<rect width="19" height="19" fill="white"/>
</clipPath>
</defs>
</svg>
