<svg width="19" height="19" viewBox="0 0 19 19" fill="none" xmlns="http://www.w3.org/2000/svg">
<g clip-path="url(#clip0_218_48)">
<path d="M7.23605 7.98792C7.21368 7.29994 7.33283 6.61471 7.58612 5.97467C7.83942 5.33463 8.22145 4.75343 8.70855 4.26708L11.3211 1.65458C11.6147 1.35917 12.0129 1.19135 12.4294 1.1875C12.8493 1.1875 13.252 1.35431 13.549 1.65125C13.8459 1.94818 14.0127 2.35091 14.0127 2.77083C14.0236 2.9892 13.9891 3.20745 13.9114 3.41182C13.8337 3.6162 13.7146 3.80228 13.5615 3.95833L10.949 6.57083C10.4589 7.04697 9.87687 7.41821 9.23849 7.66185C8.60011 7.9055 7.91876 8.01645 7.23605 7.98792Z" stroke="white" stroke-width="1.5" stroke-miterlimit="10"/>
<path d="M14.7171 5.72375H17.8125V17.8125H1.1875V5.72375H5.795" stroke="white" stroke-width="1.5" stroke-miterlimit="10"/>
<path d="M1.1875 5.72375L9.5 14.0363L17.8125 5.72375" stroke="white" stroke-width="1.5" stroke-miterlimit="10"/>
<path d="M7.23583 11.7642L1.1875 17.8125" stroke="white" stroke-width="1.5" stroke-miterlimit="10"/>
<path d="M17.813 17.8125L11.7646 11.7642" stroke="white" stroke-width="1.5" stroke-miterlimit="10"/>
<path d="M14.7171 5.72375H17.8125V17.8125H1.1875V5.72375H5.795" stroke="white" stroke-width="1.5" stroke-miterlimit="10"/>
</g>
<defs>
<clipPath id="clip0_218_48">
<rect width="19" height="19" fill="white"/>
</clipPath>
</defs>
</svg>
