<svg width="19" height="19" viewBox="0 0 19 19" fill="none" xmlns="http://www.w3.org/2000/svg">
<path d="M9.60916 1C7.51042 1.02875 5.83333 2.73458 5.83333 4.83333C5.77583 6.405 5.65125 8.15875 4.90375 9.23208C7.47208 10.7942 9.66667 10.5833 9.66667 10.5833C9.66667 10.5833 11.8612 10.7942 14.4296 9.23208C13.615 7.91917 13.4425 6.30917 13.5 4.83333C13.5 2.71542 11.7846 1 9.66667 1H9.60916ZM6.6575 10.89C3.91667 11.4746 2 12.8354 2 14.4167V18.25H9.66667L6.79167 14.4167H4.39583M9.66667 18.25L11.3725 11.3596C11.3725 11.3596 10.625 11.5417 9.66667 11.5417C8.70833 11.5417 7.96083 11.3596 7.96083 11.3596M9.66667 18.25H17.3333V14.4167C17.3333 12.8354 15.4167 11.4746 12.6758 10.89L14.9375 14.4167H12.5417L9.66667 18.25Z" fill="#1D458A"/>
</svg>
