<svg width="29" height="25" viewBox="0 0 29 25" fill="none" xmlns="http://www.w3.org/2000/svg">
<path d="M-4.87566e-05 17.3598C-4.87566e-05 12.4531 2.93328 6.66647 8.79995 -0.000196457L12.56 2.3198C9.78662 6.58647 8.23995 9.8398 7.91995 12.0798L12.64 14.9598C12.64 16.8265 12.1866 18.6665 11.28 20.4798C10.4266 22.2931 9.54662 23.7065 8.63995 24.7198C5.65329 24.7198 3.27995 23.9198 1.51995 22.3198C0.506618 21.4131 -4.87566e-05 19.7598 -4.87566e-05 17.3598ZM15.6 17.3598C15.6 12.4531 18.5333 6.66647 24.4 -0.000196457L28.16 2.3198C25.3866 6.58647 23.84 9.8398 23.52 12.0798L28.24 14.9598C28.24 16.8265 27.7866 18.6665 26.88 20.4798C26.0266 22.2931 25.1466 23.7065 24.24 24.7198C21.2533 24.7198 18.88 23.9198 17.12 22.3198C16.1066 21.4131 15.6 19.7598 15.6 17.3598Z" fill="#F19021"/>
</svg>
