<svg width="375" height="945" viewBox="0 0 375 945" fill="none" xmlns="http://www.w3.org/2000/svg">
<g clip-path="url(#clip0_62_245)">
<rect width="375" height="945" fill="url(#paint0_linear_62_245)"/>
<path d="M452.237 303.33C426.541 284.905 397.685 270.575 371.073 253.241C344.462 235.907 319.034 214.165 308.039 189.05C288.492 144.424 319.248 101.666 292.752 58.1686C280.154 37.485 257.129 21.3281 236.602 4.58267C216.075 -12.1628 195.868 -32.8268 194.034 -53.7531C192.494 -71.2877 204.947 -85.1747 222.289 -91.337C239.621 -97.5093 261.168 -96.9237 282.409 -93.6893C359.621 -81.947 436.921 -36.0007 491.163 20.8768C545.404 77.7544 578.372 144.458 596.237 209.411C614.102 274.356 617.793 338.21 620.241 401.366C620.785 415.356 621.238 429.539 617.057 442.063C612.876 454.587 603.393 465.452 588.358 468.802C577.721 471.177 557.104 469.649 549.833 457.785C544.027 448.306 545.837 434.062 542.953 424.195C534.712 395.954 518.285 367.586 495.725 342.337C483.045 328.145 468.402 314.923 452.237 303.33Z" fill="url(#paint1_linear_62_245)"/>
<path d="M476.375 257.567C450.679 239.142 421.823 224.812 395.212 207.478C368.6 190.145 343.172 168.402 332.178 143.287C312.631 98.6611 343.387 55.9033 316.89 12.4059C304.292 -8.27768 281.268 -24.4346 260.74 -41.18C240.213 -57.9255 220.007 -78.5895 218.172 -99.5158C216.632 -117.05 229.086 -130.937 246.427 -137.1C263.759 -143.272 285.307 -142.686 306.547 -139.452C383.76 -127.71 461.06 -81.7634 515.301 -24.8859C569.543 31.9917 602.511 98.6958 620.376 163.648C638.241 228.593 641.931 292.447 644.379 355.604C644.923 369.593 645.377 383.776 641.196 396.3C637.015 408.824 627.531 419.69 612.497 423.04C601.859 425.414 581.243 423.887 573.971 412.023C568.165 402.543 569.976 388.299 567.091 378.433C558.851 350.192 542.424 321.823 519.864 296.574C507.183 282.382 492.54 269.161 476.375 257.567Z" fill="url(#paint2_linear_62_245)"/>
<path d="M502.294 116.094C487.842 117.617 475.944 122.735 462.167 125.249C448.39 127.762 431.699 127.388 413.784 118.806C381.951 103.56 355.123 67.006 323.542 55.4475C308.525 49.9508 295.816 51.5039 282.891 51.6342C269.966 51.7646 254.398 49.6525 240.014 39.2519C227.962 30.5384 219.432 17.5732 216.524 6.57988C213.609 -4.41461 215.607 -13.6573 219.386 -21.3443C233.113 -49.2961 270.133 -58.957 312.884 -52.5333C355.634 -46.1096 403.496 -24.9851 449.043 1.89909C494.586 28.7791 538.333 61.3611 581.513 94.1202C591.078 101.376 600.767 108.775 608.983 117.341C617.2 125.907 623.893 135.935 625.058 144.399C625.885 150.389 623.314 158.714 614.697 155.581C607.812 153.076 598.249 144.64 591.317 140.632C571.478 129.152 550.945 121.236 532.08 117.71C521.476 115.729 511.387 115.138 502.294 116.094Z" fill="url(#paint3_linear_62_245)"/>
<path d="M483.757 89.1378C469.305 90.6602 457.406 95.7789 443.63 98.2924C429.853 100.806 413.162 100.432 395.247 91.849C363.413 76.6034 336.586 40.0494 305.005 28.491C289.988 22.9942 277.278 24.5474 264.354 24.6777C251.429 24.808 235.86 22.696 221.477 12.2953C209.425 3.58187 200.895 -9.38337 197.987 -20.3767C195.071 -31.3712 197.07 -40.6139 200.849 -48.3008C214.575 -76.2527 251.596 -85.9135 294.346 -79.4898C337.097 -73.0662 384.958 -51.9417 430.506 -25.0574C476.048 1.82258 519.795 34.4046 562.975 67.1637C572.54 74.4192 582.23 81.8185 590.446 90.3843C598.662 98.95 605.356 108.979 606.52 117.442C607.347 123.432 604.777 131.757 596.16 128.624C589.275 126.12 579.711 117.683 572.78 113.675C552.941 102.196 532.407 94.279 513.543 90.7539C502.939 88.7724 492.85 88.1814 483.757 89.1378Z" fill="url(#paint4_linear_62_245)"/>
</g>
<defs>
<linearGradient id="paint0_linear_62_245" x1="39.5" y1="8.25856e-06" x2="-224.471" y2="742.33" gradientUnits="userSpaceOnUse">
<stop stop-color="#21367F"/>
<stop offset="0.288608" stop-color="#194E91"/>
<stop offset="0.9951" stop-color="#55C9F0"/>
</linearGradient>
<linearGradient id="paint1_linear_62_245" x1="413.553" y1="-63.2058" x2="301.117" y2="404.535" gradientUnits="userSpaceOnUse">
<stop stop-color="#7ED4EF"/>
<stop offset="0.2294" stop-color="#66BFE6"/>
<stop offset="0.711" stop-color="#298BD0"/>
<stop offset="1" stop-color="#0169C2"/>
</linearGradient>
<linearGradient id="paint2_linear_62_245" x1="437.692" y1="-108.968" x2="325.256" y2="358.772" gradientUnits="userSpaceOnUse">
<stop stop-color="#7ED4EF"/>
<stop offset="0.2294" stop-color="#66BFE6"/>
<stop offset="0.711" stop-color="#298BD0"/>
<stop offset="1" stop-color="#0169C2"/>
</linearGradient>
<linearGradient id="paint3_linear_62_245" x1="249.876" y1="-63.1719" x2="591.772" y2="195.295" gradientUnits="userSpaceOnUse">
<stop stop-color="#7ED4EF"/>
<stop offset="0.2294" stop-color="#66BFE6"/>
<stop offset="0.711" stop-color="#298BD0"/>
<stop offset="1" stop-color="#0169C2"/>
</linearGradient>
<linearGradient id="paint4_linear_62_245" x1="231.339" y1="-90.1285" x2="573.235" y2="168.338" gradientUnits="userSpaceOnUse">
<stop stop-color="#7ED4EF"/>
<stop offset="0.2294" stop-color="#66BFE6"/>
<stop offset="0.711" stop-color="#298BD0"/>
<stop offset="1" stop-color="#0169C2"/>
</linearGradient>
<clipPath id="clip0_62_245">
<rect width="375" height="945" fill="white"/>
</clipPath>
</defs>
</svg>
