<svg width="1440" height="1148" viewBox="0 0 1440 1148" fill="none" xmlns="http://www.w3.org/2000/svg">
<g clip-path="url(#clip0_60_786)">
<path d="M1440 2118L0 2118L0.000370323 -0.000244141L1440 7.63691e-06L1440 2118Z" fill="url(#paint0_linear_60_786)"/>
<path d="M123.348 592.857C174.594 556.333 232.196 528.249 285.284 493.976C338.372 459.703 389.057 416.423 410.842 365.761C449.575 275.741 387.706 187.687 440.349 100.214C465.379 58.6202 511.301 26.6093 552.224 -6.68913C593.147 -39.9876 633.395 -81.265 636.893 -123.745C639.83 -159.339 614.806 -188.028 580.069 -201.188C545.35 -214.369 502.254 -213.963 459.795 -208.161C305.446 -187.1 151.203 -96.4998 43.1727 17.1657C-64.8579 130.831 -130.256 265.251 -165.459 396.659C-200.662 528.053 -207.52 657.744 -211.9 786.062C-212.874 814.485 -213.664 843.304 -205.199 868.92C-196.733 894.536 -177.675 916.974 -147.575 924.332C-126.277 929.547 -85.0517 927.193 -70.6042 903.336C-59.0684 884.275 -62.8067 855.248 -57.1175 835.293C-40.8657 778.174 -8.2398 721.095 36.6783 670.582C61.9263 642.189 91.1084 615.84 123.348 592.857Z" fill="url(#paint1_linear_60_786)"/>
<path d="M74.8944 500.997C126.141 464.472 183.743 436.388 236.831 402.115C289.919 367.843 340.603 324.562 362.389 273.901C401.122 183.88 339.252 95.8258 391.896 8.35357C416.926 -33.2406 462.848 -65.2515 503.771 -98.55C544.694 -131.848 584.942 -173.126 588.44 -215.605C591.377 -251.2 566.353 -279.888 531.616 -293.049C496.897 -306.23 453.801 -305.824 411.342 -300.022C256.993 -278.961 102.75 -188.361 -5.28052 -74.6951C-113.311 38.9704 -178.709 173.39 -213.912 304.799C-249.115 436.192 -255.973 565.883 -260.353 694.201C-261.327 722.625 -262.117 751.444 -253.652 777.059C-245.186 802.675 -226.129 825.113 -196.028 832.471C-174.73 837.686 -133.505 835.332 -119.057 811.475C-107.522 792.414 -111.26 763.387 -105.571 743.432C-89.3189 686.313 -56.693 629.234 -11.7749 578.721C13.4731 550.328 42.6552 523.98 74.8944 500.997Z" fill="url(#paint2_linear_60_786)"/>
<path d="M21.7172 213.357C50.7749 216.967 74.7307 227.778 102.44 233.374C130.149 238.97 163.692 238.816 199.626 222.062C263.479 192.3 317.094 119.147 380.47 96.8533C410.607 86.251 436.163 89.861 462.14 90.5936C488.117 91.3262 519.389 87.6074 548.211 67.0381C572.361 49.8055 589.398 23.8235 595.151 1.63657C600.92 -20.5525 596.827 -39.3674 589.169 -55.092C561.35 -112.27 486.867 -133.202 401 -121.725C315.134 -110.248 219.117 -69.146 127.798 -16.2803C36.4887 36.5772 -51.1649 101.062 -137.677 165.927C-156.841 180.293 -176.254 194.946 -192.696 212.018C-209.138 229.091 -222.508 249.185 -224.779 266.304C-226.391 278.421 -221.156 295.396 -203.863 289.355C-190.047 284.525 -170.896 267.765 -156.999 259.889C-117.221 237.329 -76.0181 222.019 -38.133 215.554C-16.8382 211.921 3.43355 211.088 21.7172 213.357Z" fill="url(#paint3_linear_60_786)"/>
<path d="M58.9275 159.247C87.9852 162.858 111.941 173.668 139.65 179.264C167.36 184.861 200.902 184.706 236.836 167.952C300.689 138.19 354.305 65.0374 417.681 42.7434C447.817 32.1412 473.373 35.7512 499.35 36.4837C525.327 37.2163 556.599 33.4975 585.421 12.9282C609.572 -4.30434 626.608 -30.2863 632.362 -52.4733C638.13 -74.6624 634.038 -93.4773 626.379 -109.202C598.56 -166.38 524.077 -187.312 438.211 -175.835C352.344 -164.358 256.327 -123.256 165.008 -70.3902C73.699 -17.5327 -13.9546 46.9523 -100.467 111.817C-119.631 126.183 -139.043 140.837 -155.486 157.909C-171.928 174.981 -185.298 195.075 -187.568 212.194C-189.18 224.312 -183.945 241.286 -166.653 235.245C-152.836 230.415 -133.686 213.655 -119.788 205.779C-80.0105 183.219 -38.8078 167.909 -0.922724 161.445C20.3721 157.811 40.6438 156.978 58.9275 159.247Z" fill="url(#paint4_linear_60_786)"/>
<g opacity="0.54">
<path opacity="0.54" d="M512.447 -272.234C489.447 -241.912 503.528 -195.07 533.182 -171.244C562.837 -147.419 602.78 -141.344 640.774 -139.185C678.768 -137.008 717.833 -137.675 753.439 -124.279C827.127 -96.5381 866.244 -17.7059 896.355 55.0515C926.466 127.809 959.965 207.589 1030.14 243.301C1085.17 271.305 1150.64 265.493 1211.17 277.608C1316.85 298.747 1408.34 380.037 1441.74 482.519" stroke="url(#paint5_linear_60_786)" stroke-width="0.8669" stroke-miterlimit="10"/>
<path opacity="0.54" d="M516.643 -281.609C493.643 -251.341 507.408 -204.603 536.746 -180.514C539.362 -178.355 542.084 -176.353 544.858 -174.457C573.195 -155.285 609.205 -149.684 643.67 -147.331C650.325 -146.875 657.014 -146.506 663.703 -146.137C695.113 -144.417 726.734 -142.626 755.984 -131.442C765.465 -127.807 774.384 -123.348 782.777 -118.151C839.417 -83.1242 872.214 -15.1774 897.9 48.3097C899.761 52.9273 901.64 57.5624 903.536 62.2151C931.61 131.092 964.372 202.48 1027.96 237.911C1046.15 248.041 1065.48 254.994 1086.11 259.313C1110.47 264.422 1136.08 265.844 1161.21 267.512C1178.36 268.654 1195.37 269.935 1212.11 272.587C1219.97 273.833 1227.78 275.413 1235.53 277.344C1284.83 289.617 1330.95 316.199 1367.93 351.893C1404.99 387.675 1433.06 432.428 1448.58 481.553" stroke="url(#paint6_linear_60_786)" stroke-width="0.8669" stroke-miterlimit="10"/>
<path opacity="0.54" d="M520.822 -290.985C497.804 -260.751 511.253 -214.137 540.275 -189.785C542.874 -187.608 545.56 -185.571 548.317 -183.657C576.391 -164.239 612.208 -158.234 646.567 -155.478C653.204 -154.951 659.858 -154.512 666.53 -154.073C697.835 -152.019 729.385 -149.947 758.53 -138.623C767.976 -134.953 776.877 -130.459 785.252 -125.226C841.769 -89.9714 874.303 -22.0423 899.463 41.5502C901.289 46.1678 903.132 50.8204 904.975 55.4731C932.4 124.438 964.354 195.194 1025.84 232.486C1043.8 243.389 1062.83 251.693 1083.88 256.592C1108.76 262.386 1135.33 263.404 1161.03 264.3C1178.57 264.914 1195.92 265.511 1213.04 267.548C1221.09 268.513 1229.08 269.813 1237.05 271.516C1287.78 282.331 1335.88 309.457 1373.77 346.397C1411.75 383.408 1439.88 429.917 1455.4 480.605" stroke="url(#paint7_linear_60_786)" stroke-width="0.8669" stroke-miterlimit="10"/>
<path opacity="0.54" d="M525.018 -300.378C502.001 -270.197 515.116 -223.688 543.84 -199.09C546.403 -196.895 549.054 -194.823 551.793 -192.892C579.621 -173.21 615.227 -166.802 649.482 -163.659C656.083 -163.062 662.738 -162.536 669.374 -162.026C700.574 -159.639 732.036 -157.286 761.094 -145.821C770.504 -142.117 779.371 -137.587 787.728 -132.337C844.104 -96.8714 876.392 -28.9598 901.025 34.7556C902.816 39.3907 904.607 44.0434 906.415 48.6961C933.19 117.766 964.354 187.943 1023.7 227.043C1041.45 238.736 1060.16 248.358 1081.65 253.836C1107.06 260.332 1134.57 260.929 1160.86 261.034C1178.8 261.122 1196.46 261.016 1213.97 262.456C1222.2 263.123 1230.4 264.159 1238.58 265.634C1290.73 274.992 1340.82 302.645 1379.62 340.832C1418.51 379.089 1446.69 427.337 1462.23 479.587" stroke="url(#paint8_linear_60_786)" stroke-width="0.8669" stroke-miterlimit="10"/>
<path opacity="0.54" d="M529.214 -309.754C506.197 -279.608 518.996 -233.222 547.386 -208.361C549.932 -206.131 552.548 -204.059 555.252 -202.093C582.817 -182.148 618.23 -175.353 652.379 -171.824C658.963 -171.139 665.582 -170.56 672.201 -169.98C703.295 -167.259 734.687 -164.608 763.657 -153.02C773.033 -149.263 781.881 -144.715 790.204 -139.431C846.457 -103.754 878.464 -35.8426 902.605 27.9781C904.361 32.6133 906.117 37.2835 907.873 41.9538C933.998 111.112 964.354 180.832 1021.57 221.617C1039.1 234.118 1057.53 245.057 1079.44 251.096C1105.39 258.295 1133.83 258.47 1160.7 257.803C1179.03 257.347 1197.02 256.574 1214.93 257.399C1223.34 257.785 1231.75 258.558 1240.16 259.787C1293.73 267.67 1345.8 295.885 1385.52 335.301C1425.32 374.787 1453.55 424.79 1469.11 478.603" stroke="url(#paint9_linear_60_786)" stroke-width="0.8669" stroke-miterlimit="10"/>
<path opacity="0.54" d="M533.411 -319.129C510.375 -289.036 522.859 -242.738 550.933 -217.631C553.443 -215.383 556.042 -213.276 558.728 -211.292C586.03 -191.084 621.25 -183.903 655.293 -179.97C661.86 -179.215 668.461 -178.566 675.063 -177.916C706.052 -174.861 737.374 -171.929 766.238 -160.201C775.578 -156.408 784.392 -151.808 792.714 -146.506C848.845 -110.601 880.589 -42.7249 904.203 21.2188C905.924 25.8714 907.627 30.5241 909.347 35.2119C934.823 104.458 964.354 173.809 1019.47 216.21C1036.8 229.536 1054.9 241.756 1077.23 248.392C1103.71 256.276 1133.1 256.048 1160.56 254.608C1179.29 253.625 1197.62 252.167 1215.9 252.378C1224.5 252.483 1233.09 252.975 1241.72 253.976C1296.71 260.402 1350.77 289.143 1391.4 329.806C1432.1 370.539 1460.4 422.28 1475.97 477.656" stroke="url(#paint10_linear_60_786)" stroke-width="0.8669" stroke-miterlimit="10"/>
<path opacity="0.54" d="M537.589 -328.505C514.554 -298.447 526.704 -252.271 554.479 -226.901C556.955 -224.636 559.536 -222.494 562.187 -220.492C589.243 -200.038 624.252 -192.436 658.173 -188.134C664.722 -187.309 671.288 -186.572 677.872 -185.852C708.755 -182.481 739.99 -179.25 768.766 -167.382C778.071 -163.537 786.868 -158.919 795.155 -153.582C851.162 -117.466 882.643 -49.5898 905.731 14.4592C907.416 19.1119 909.084 23.7821 910.752 28.4699C935.578 97.8037 964.284 166.874 1017.29 210.785C1034.41 224.954 1052.19 238.455 1074.97 245.654C1101.97 254.239 1132.31 253.59 1160.35 251.36C1179.47 249.85 1198.13 247.708 1216.79 247.304C1225.57 247.111 1234.37 247.339 1243.23 248.112C1299.65 253.08 1355.69 282.366 1397.23 324.258C1438.84 366.22 1467.2 419.717 1482.79 476.655" stroke="url(#paint11_linear_60_786)" stroke-width="0.8669" stroke-miterlimit="10"/>
<path opacity="0.54" d="M541.785 -337.898C518.733 -307.893 530.584 -261.822 558.026 -236.206C560.484 -233.924 563.03 -231.764 565.663 -229.727C592.456 -209.01 627.272 -201.021 661.087 -196.316C667.601 -195.421 674.167 -194.613 680.716 -193.823C711.512 -190.118 742.658 -186.589 771.329 -174.598C780.6 -170.717 789.378 -166.065 797.63 -160.692C853.515 -124.366 884.732 -56.5073 907.293 7.66464C908.926 12.3349 910.559 17.0051 912.192 21.6929C936.368 91.1144 964.196 159.992 1015.15 205.342C1032.06 220.389 1049.52 235.119 1072.74 242.915C1100.27 252.203 1131.55 251.132 1160.17 248.129C1179.69 246.093 1198.67 243.266 1217.74 242.248C1226.71 241.774 1235.68 241.721 1244.78 242.265C1302.61 245.759 1360.64 275.589 1403.09 318.727C1445.62 361.936 1474.02 417.171 1489.62 475.672" stroke="url(#paint12_linear_60_786)" stroke-width="0.8669" stroke-miterlimit="10"/>
<path opacity="0.54" d="M545.982 -347.273C522.929 -317.321 534.446 -271.356 561.59 -245.476C564.013 -243.159 566.541 -240.982 569.14 -238.927C595.686 -217.946 630.274 -209.554 664.002 -204.462C670.498 -203.479 677.029 -202.601 683.56 -201.741C714.251 -197.703 745.327 -193.893 773.893 -181.761C783.145 -177.846 791.871 -173.158 800.123 -167.768C855.868 -131.213 886.839 -63.372 908.873 0.905222C910.471 5.57546 912.069 10.2633 913.649 14.9686C937.158 84.4779 964.108 153.215 1013.02 199.935C1029.72 215.877 1046.89 231.836 1070.51 240.193C1098.56 250.166 1130.8 248.691 1160 244.916C1179.91 242.353 1199.22 238.824 1218.67 237.191C1227.82 236.436 1237 236.103 1246.31 236.419C1305.56 238.455 1365.56 268.829 1408.94 313.197C1452.38 357.634 1480.84 414.643 1496.45 474.689" stroke="url(#paint13_linear_60_786)" stroke-width="0.8669" stroke-miterlimit="10"/>
<path opacity="0.54" d="M550.178 -356.649C527.108 -326.732 538.327 -280.89 565.137 -254.747C567.542 -252.412 570.035 -250.2 572.599 -248.128C598.882 -226.901 633.276 -218.105 666.899 -212.627C673.377 -211.574 679.891 -210.625 686.405 -209.695C716.99 -205.323 747.978 -201.232 776.456 -188.96C785.674 -184.992 794.382 -180.286 802.599 -174.861C858.22 -138.096 888.928 -70.2725 910.453 -5.87234C912.016 -1.2021 913.561 3.50329 915.106 8.20864C937.966 77.8057 963.986 146.49 1010.9 194.492C1027.37 211.347 1044.24 228.518 1068.29 237.454C1096.88 248.129 1130.06 246.25 1159.85 241.685C1180.17 238.578 1199.8 234.382 1219.65 232.134C1228.98 231.081 1238.37 230.484 1247.9 230.572C1308.58 231.134 1370.56 262.052 1414.86 307.666C1459.21 353.332 1487.74 412.097 1503.35 473.705" stroke="url(#paint14_linear_60_786)" stroke-width="0.8669" stroke-miterlimit="10"/>
<path opacity="0.54" d="M554.356 -366.025C531.286 -336.16 542.172 -290.423 568.666 -264.035C571.036 -261.682 573.494 -259.452 576.057 -257.345C602.095 -235.855 636.279 -226.655 669.796 -220.791C676.239 -219.667 682.735 -218.649 689.231 -217.648C719.711 -212.96 750.629 -208.554 779.002 -196.158C788.184 -192.155 796.858 -187.415 805.057 -181.954C860.556 -144.979 891 -77.1724 911.998 -12.6493C913.526 -7.96153 915.036 -3.25613 916.528 1.44923C938.738 71.1341 963.792 139.836 1008.74 189.066C1024.98 206.852 1041.55 225.199 1066.05 234.715C1095.16 246.092 1129.29 243.792 1159.66 238.438C1180.38 234.803 1200.32 229.922 1220.57 227.06C1230.08 225.726 1239.65 224.848 1249.41 224.708C1311.51 223.812 1375.48 255.275 1420.69 302.135C1465.95 349.048 1494.53 409.551 1510.16 472.722" stroke="url(#paint15_linear_60_786)" stroke-width="0.8669" stroke-miterlimit="10"/>
<path opacity="0.54" d="M558.553 -375.418C535.465 -345.588 546.034 -299.957 572.23 -273.322C574.565 -270.935 577.005 -268.687 579.534 -266.563C605.308 -244.809 639.299 -235.223 672.693 -228.973C679.119 -227.779 685.597 -226.673 692.058 -225.602C722.432 -220.58 753.281 -215.892 781.565 -203.357C790.713 -199.301 799.368 -194.543 807.55 -189.047C862.926 -151.843 893.089 -84.0547 913.579 -19.4263C915.071 -14.7386 916.528 -10.0157 917.985 -5.29275C939.546 64.4799 963.582 133.234 1006.61 183.641C1022.61 202.375 1038.9 221.899 1063.82 231.994C1093.45 244.056 1128.53 241.352 1159.49 235.225C1180.59 231.063 1200.87 225.498 1221.5 222.022C1231.19 220.389 1240.97 219.247 1250.96 218.879C1314.48 216.526 1380.43 248.533 1426.55 296.622C1472.73 344.765 1501.36 407.023 1517.01 471.756" stroke="url(#paint16_linear_60_786)" stroke-width="0.8669" stroke-miterlimit="10"/>
<path opacity="0.54" d="M562.749 -384.793C539.661 -355.016 549.914 -309.49 575.776 -282.592C578.094 -280.187 580.499 -277.905 583.01 -275.745C608.521 -253.728 642.318 -243.738 675.607 -237.102C682.016 -235.82 688.459 -234.661 694.903 -233.52C725.171 -228.165 755.932 -223.196 784.129 -210.52C793.241 -206.429 801.879 -201.618 810.026 -196.105C865.279 -158.691 895.179 -90.9196 915.141 -26.1683C916.599 -21.4629 918.021 -16.74 919.425 -12.0171C940.336 57.8609 963.301 126.721 1004.47 178.251C1020.22 197.951 1036.25 218.615 1061.59 229.29C1091.75 242.054 1127.78 238.929 1159.33 232.029C1180.84 227.341 1201.45 221.073 1222.46 217C1232.35 215.086 1242.32 213.664 1252.52 213.067C1317.47 209.24 1385.4 241.791 1432.43 291.127C1479.52 340.516 1508.21 404.512 1523.85 470.808" stroke="url(#paint17_linear_60_786)" stroke-width="0.8669" stroke-miterlimit="10"/>
<path opacity="0.54" d="M566.945 -394.169C543.84 -364.427 553.777 -319.024 579.34 -291.863C581.623 -289.44 584.011 -287.14 586.486 -284.945C611.751 -262.682 645.338 -252.288 678.522 -245.266C684.912 -243.914 691.321 -242.667 697.747 -241.473C727.91 -235.785 758.6 -230.517 786.692 -217.718C795.769 -213.592 804.372 -208.746 812.501 -203.198C867.614 -165.573 897.268 -97.8019 916.704 -32.9453C918.108 -28.2399 919.495 -23.4994 920.865 -18.7765C941.126 51.1893 962.985 120.189 1002.35 172.809C1017.82 193.491 1033.6 215.297 1059.37 226.551C1090.06 240.018 1127.04 236.471 1159.17 228.781C1181.06 223.549 1202.01 216.614 1223.41 211.926C1233.47 209.732 1243.64 208.029 1254.07 207.203C1320.43 201.919 1390.35 235.014 1438.3 285.579C1486.3 336.197 1515.04 401.949 1530.7 469.808" stroke="url(#paint18_linear_60_786)" stroke-width="0.8669" stroke-miterlimit="10"/>
<path opacity="0.54" d="M571.124 -403.545C548.018 -373.856 557.622 -328.558 582.87 -301.151C585.117 -298.71 587.487 -296.375 589.928 -294.163C614.929 -271.637 648.323 -260.839 681.401 -253.43C687.757 -252.008 694.165 -250.691 700.574 -249.409C730.649 -243.405 761.252 -237.839 789.238 -224.899C798.28 -220.721 806.866 -215.857 814.977 -210.292C869.966 -172.456 899.357 -104.702 918.284 -39.7227C919.654 -34.9998 921.005 -30.2593 922.322 -25.5364C941.934 44.5172 962.651 113.71 1000.22 167.383C1015.41 189.066 1030.95 211.979 1057.14 223.812C1088.36 237.963 1126.27 234.013 1158.99 225.55C1181.29 219.792 1202.55 212.172 1224.36 206.869C1234.61 204.376 1244.97 202.427 1255.63 201.356C1323.42 194.614 1395.32 228.237 1444.18 280.048C1493.09 331.912 1521.89 399.403 1537.56 468.824" stroke="url(#paint19_linear_60_786)" stroke-width="0.8669" stroke-miterlimit="10"/>
<path opacity="0.54" d="M575.32 -412.92C552.197 -383.266 561.502 -338.091 586.416 -310.421C588.646 -307.945 590.981 -305.593 593.404 -303.363C618.16 -280.574 651.343 -269.39 684.298 -261.577C690.636 -260.084 697.009 -258.697 703.4 -257.345C733.371 -251.007 763.885 -245.16 791.784 -232.08C800.79 -227.867 809.341 -222.968 817.435 -217.367C872.301 -179.303 901.429 -111.567 919.829 -46.4822C921.163 -41.7593 922.462 -37.0188 923.744 -32.2608C942.706 37.8806 962.212 107.302 998.064 161.976C1012.94 184.66 1028.26 208.695 1054.9 221.108C1086.64 235.962 1125.5 231.59 1158.8 222.355C1181.49 216.07 1203.08 207.765 1225.27 201.848C1235.7 199.074 1246.25 196.844 1257.14 195.545C1326.35 187.328 1400.23 221.512 1450.01 274.553C1499.83 327.646 1528.68 396.892 1544.38 467.876" stroke="url(#paint20_linear_60_786)" stroke-width="0.8669" stroke-miterlimit="10"/>
<path opacity="0.54" d="M579.516 -422.313C556.393 -392.712 565.365 -347.625 589.98 -319.709C592.175 -317.216 594.475 -314.845 596.88 -312.58C621.373 -289.528 654.363 -277.957 687.212 -269.758C693.533 -268.178 699.889 -266.721 706.245 -265.299C736.11 -258.627 766.554 -252.482 794.347 -239.279C803.319 -235.012 811.852 -230.096 819.911 -224.46C874.654 -186.185 903.518 -118.467 921.392 -53.2592C922.691 -48.5188 923.955 -43.7783 925.184 -39.0202C943.496 31.2089 961.773 100.859 995.922 156.55C1010.46 180.253 1025.61 205.377 1052.67 218.37C1084.94 233.925 1124.74 229.132 1158.64 219.125C1181.73 212.312 1203.64 203.305 1226.22 196.792C1236.83 193.719 1247.59 191.226 1258.68 189.699C1329.32 180.024 1405.18 214.735 1455.87 269.022C1506.61 323.362 1535.51 394.346 1551.22 466.893" stroke="url(#paint21_linear_60_786)" stroke-width="0.8669" stroke-miterlimit="10"/>
<path opacity="0.54" d="M583.695 -431.689C560.572 -402.122 569.21 -357.158 593.509 -328.996C595.686 -326.486 597.951 -324.08 600.339 -321.798C624.568 -298.499 657.365 -286.508 690.109 -277.922C696.413 -276.272 702.733 -274.744 709.071 -273.252C738.831 -266.247 769.205 -259.821 796.91 -246.477C805.847 -242.176 814.362 -237.224 822.404 -231.553C877.024 -193.068 905.625 -125.367 922.972 -60.0362C924.236 -55.2958 925.465 -50.5378 926.641 -45.7797C944.304 24.5372 961.282 94.4504 993.798 151.108C1007.98 175.846 1022.96 202.059 1050.44 215.613C1083.23 231.854 1123.99 226.657 1158.47 215.859C1181.94 208.52 1204.19 198.828 1227.17 191.7C1237.97 188.347 1248.92 185.573 1260.25 183.817C1332.3 172.668 1410.15 207.941 1461.75 263.457C1513.41 319.026 1542.36 391.765 1558.07 465.875" stroke="url(#paint22_linear_60_786)" stroke-width="0.8669" stroke-miterlimit="10"/>
<path opacity="0.54" d="M587.891 -441.064C564.751 -411.551 573.09 -366.692 597.073 -338.267C599.215 -335.721 601.463 -333.298 603.815 -330.998C627.799 -307.436 660.385 -295.058 693.024 -286.086C699.292 -284.366 705.613 -282.75 711.916 -281.205C741.57 -273.866 771.856 -267.16 799.474 -253.676C808.376 -249.339 816.856 -244.335 824.879 -238.646C879.36 -199.933 907.715 -132.249 924.534 -66.8132C925.764 -62.0552 926.94 -57.2972 928.081 -52.5392C945.094 17.8655 960.755 88.042 991.656 145.683C1005.47 171.457 1020.29 198.741 1048.21 212.892C1081.53 229.835 1123.23 224.234 1158.29 212.646C1182.17 204.763 1204.75 194.404 1228.1 186.661C1239.07 183.027 1250.22 179.972 1261.77 177.988C1335.27 165.382 1415.09 201.181 1467.6 257.961C1520.17 314.759 1549.17 389.255 1564.9 464.927" stroke="url(#paint23_linear_60_786)" stroke-width="0.8669" stroke-miterlimit="10"/>
<path opacity="0.54" d="M592.087 -450.44C568.946 -420.962 576.953 -376.226 600.62 -347.537C602.727 -344.974 604.957 -342.533 607.274 -340.198C630.994 -316.373 663.387 -303.591 695.921 -294.233C702.171 -292.442 708.457 -290.757 714.76 -289.124C744.309 -281.469 774.525 -274.446 802.037 -260.822C810.903 -256.432 819.366 -251.411 827.355 -245.705C881.712 -206.78 909.786 -139.115 926.114 -73.5557C927.291 -68.7976 928.449 -64.022 929.556 -59.2464C945.919 11.2461 960.211 81.6859 989.549 140.292C1002.98 167.102 1017.66 195.475 1046.01 210.188C1079.86 227.833 1122.51 221.811 1158.15 209.45C1182.43 201.04 1205.33 189.997 1229.07 181.622C1240.23 177.689 1251.57 174.371 1263.35 172.159C1338.27 158.095 1420.07 194.439 1473.5 252.448C1526.98 310.492 1556.05 386.726 1571.78 463.961" stroke="url(#paint24_linear_60_786)" stroke-width="0.8669" stroke-miterlimit="10"/>
<path opacity="0.54" d="M596.283 -459.833C573.125 -430.407 580.815 -385.777 604.166 -356.825C606.256 -354.244 608.45 -351.768 610.75 -349.416C634.225 -325.345 666.407 -312.159 698.818 -302.397C705.051 -300.519 711.319 -298.781 717.586 -297.077C747.03 -289.089 777.176 -281.785 804.583 -268.02C813.414 -263.596 821.842 -258.539 829.813 -252.798C884.047 -213.663 911.858 -145.997 927.66 -80.3327C928.801 -75.5571 929.907 -70.7815 930.978 -66.0059C946.674 4.5744 959.579 75.2776 987.389 134.849C1000.4 162.695 1014.99 192.139 1043.75 207.449C1078.13 225.779 1121.72 219.353 1157.96 206.202C1182.63 197.266 1205.85 185.537 1230 176.548C1241.34 172.334 1252.89 168.735 1264.88 166.295C1341.22 150.756 1425 187.644 1479.34 246.9C1533.74 306.174 1562.86 384.181 1578.61 462.96" stroke="url(#paint25_linear_60_786)" stroke-width="0.8669" stroke-miterlimit="10"/>
<path opacity="0.54" d="M600.462 -469.209C577.304 -439.818 584.678 -395.293 607.713 -366.113C609.767 -363.514 611.944 -361.003 614.209 -358.633C637.42 -334.299 669.409 -320.709 701.715 -310.579C707.93 -308.63 714.163 -306.804 720.413 -305.031C749.769 -296.709 779.81 -289.124 807.129 -275.218C815.925 -270.741 824.335 -265.667 832.288 -259.891C886.4 -220.528 913.947 -152.897 929.222 -87.1097C930.328 -82.3341 931.399 -77.541 932.418 -72.7654C947.464 -2.07973 958.929 68.8868 985.248 129.424C997.819 158.324 1012.32 188.838 1041.52 204.71C1076.42 223.742 1120.97 216.895 1157.78 202.972C1182.85 193.508 1206.4 181.078 1230.93 171.492C1242.44 166.997 1254.19 163.117 1266.41 160.448C1344.17 143.453 1429.92 180.885 1485.19 241.37C1540.5 301.89 1569.68 381.635 1585.44 461.977" stroke="url(#paint26_linear_60_786)" stroke-width="0.8669" stroke-miterlimit="10"/>
<path opacity="0.54" d="M604.658 -478.584C581.483 -449.246 588.541 -404.826 611.26 -375.383C613.296 -372.749 615.438 -370.238 617.686 -367.833C640.633 -343.235 672.429 -329.26 704.629 -318.725C710.81 -316.706 717.042 -314.81 723.258 -312.967C752.508 -304.311 782.478 -296.445 809.692 -282.399C818.453 -277.887 826.846 -272.778 834.764 -266.966C888.753 -227.392 916.037 -159.762 930.785 -93.8691C931.856 -89.076 932.874 -84.2829 933.857 -79.5073C948.254 -8.73383 958.227 62.4961 983.106 123.999C995.22 153.934 1009.65 185.52 1039.29 201.989C1074.74 221.723 1120.21 214.454 1157.61 199.759C1183.07 189.751 1206.94 176.654 1231.87 166.453C1243.59 161.66 1255.52 157.516 1267.97 154.619C1347.16 136.166 1434.89 174.125 1491.07 235.857C1547.29 297.606 1576.52 379.107 1592.29 461.012" stroke="url(#paint27_linear_60_786)" stroke-width="0.8669" stroke-miterlimit="10"/>
<path opacity="0.54" d="M608.854 -487.96C585.679 -458.657 592.403 -414.36 614.824 -384.653C616.826 -382.002 618.932 -379.456 621.162 -377.033C643.864 -352.172 675.449 -337.792 707.544 -326.889C713.707 -324.8 719.904 -322.816 726.102 -320.92C755.247 -311.948 785.147 -303.766 812.256 -289.598C820.982 -285.033 829.339 -279.906 837.24 -274.059C891.088 -234.275 918.126 -166.662 932.348 -100.646C933.384 -95.853 934.367 -91.0423 935.297 -86.2491C949.045 -15.3879 957.525 56.0878 980.964 118.592C992.587 149.58 1007 182.237 1037.04 199.267C1073.02 219.687 1119.44 212.014 1157.43 196.546C1183.29 186.012 1207.49 172.229 1232.81 161.414C1244.69 156.34 1256.82 151.933 1269.5 148.79C1350.11 128.863 1439.82 167.383 1496.92 230.344C1554.03 293.339 1583.34 376.579 1599.12 460.046" stroke="url(#paint28_linear_60_786)" stroke-width="0.8669" stroke-miterlimit="10"/>
<path opacity="0.54" d="M613.05 -497.354C589.857 -468.103 596.283 -423.911 618.37 -393.959C620.337 -391.29 622.426 -388.709 624.621 -386.269C647.059 -361.162 678.451 -346.378 710.423 -335.071C716.568 -332.912 722.748 -330.858 728.929 -328.874C757.968 -319.568 787.781 -311.106 814.819 -296.797C823.51 -292.197 831.849 -287.035 839.733 -281.153C893.458 -241.14 920.233 -173.562 933.928 -107.424C934.928 -102.613 935.859 -97.8023 936.754 -93.0091C949.852 -22.0601 956.787 49.6615 978.857 113.149C989.988 145.173 1004.37 178.918 1034.85 196.528C1071.35 217.65 1118.72 209.556 1157.29 193.298C1183.54 182.236 1208.07 167.769 1233.77 156.34C1245.85 150.967 1258.18 146.297 1271.08 142.926C1353.11 121.541 1444.81 160.588 1502.82 224.795C1560.85 289.02 1590.2 374.015 1606 459.045" stroke="url(#paint29_linear_60_786)" stroke-width="0.8669" stroke-miterlimit="10"/>
<path opacity="0.54" d="M617.229 -506.729C594.036 -477.514 600.128 -433.445 621.917 -403.229C623.866 -400.525 625.92 -397.944 628.097 -395.451C650.29 -370.081 681.471 -354.894 713.338 -343.2C719.448 -340.953 725.61 -338.846 731.773 -336.792C760.707 -327.153 790.449 -318.409 817.382 -303.96C826.038 -299.325 834.343 -294.11 842.208 -288.229C895.811 -248.005 922.322 -180.427 935.508 -114.183C936.473 -109.372 937.369 -104.562 938.212 -99.751C950.66 -28.7142 956.032 43.2355 976.732 107.741C987.337 140.819 1001.72 175.618 1032.63 193.807C1069.66 215.631 1117.98 207.115 1157.13 190.085C1183.79 178.497 1208.65 163.327 1234.74 151.301C1246.99 145.647 1259.53 140.696 1272.64 137.097C1356.09 114.237 1449.78 153.846 1508.72 219.3C1567.66 284.754 1597.07 371.504 1612.89 458.097" stroke="url(#paint30_linear_60_786)" stroke-width="0.8669" stroke-miterlimit="10"/>
<path opacity="0.54" d="M621.425 -516.104C598.215 -486.942 604.009 -442.961 625.464 -412.499C627.377 -409.778 629.414 -407.162 631.556 -404.651C653.485 -379.017 684.474 -363.444 716.235 -351.364C722.327 -349.047 728.472 -346.852 734.6 -344.745C763.429 -334.773 793.101 -325.731 819.928 -311.158C828.549 -306.47 836.836 -301.238 844.666 -295.322C898.146 -254.887 924.394 -187.327 937.053 -120.96C937.966 -116.132 938.826 -111.321 939.634 -106.493C951.432 -35.3683 955.225 36.7922 974.573 102.316C984.651 136.43 999.03 172.317 1030.37 191.086C1067.92 213.594 1117.19 204.675 1156.92 186.872C1183.96 174.757 1209.16 158.903 1235.63 146.262C1248.06 140.328 1260.79 135.095 1274.14 131.268C1359.01 106.951 1454.68 147.105 1514.53 213.787C1574.38 280.487 1603.84 368.976 1619.68 457.131" stroke="url(#paint31_linear_60_786)" stroke-width="0.8669" stroke-miterlimit="10"/>
<path opacity="0.54" d="M625.622 -525.48C602.411 -496.352 607.871 -452.494 629.01 -421.769C630.906 -419.03 632.908 -416.379 635.015 -413.851C656.698 -387.971 687.476 -371.994 719.132 -359.511C725.207 -357.123 731.317 -354.858 737.427 -352.664C766.15 -342.357 795.734 -333.035 822.474 -318.321C831.059 -313.599 839.329 -308.331 847.142 -302.38C900.499 -261.734 926.466 -194.174 938.615 -127.702C939.493 -122.874 940.318 -118.046 941.073 -113.217C952.222 -42.0049 954.399 30.3487 972.431 96.926C981.947 132.076 996.379 169.034 1028.14 188.382C1066.22 211.593 1116.44 202.27 1156.76 183.659C1184.21 171 1209.72 154.479 1236.58 141.223C1249.2 134.99 1262.13 129.495 1275.7 125.439C1361.99 99.6649 1459.65 140.345 1520.41 208.274C1581.18 276.203 1610.69 366.448 1626.55 456.166" stroke="url(#paint32_linear_60_786)" stroke-width="0.8669" stroke-miterlimit="10"/>
<path opacity="0.54" d="M629.818 -534.873C606.589 -505.798 611.734 -462.045 632.574 -431.074C634.435 -428.318 636.419 -425.649 638.508 -423.086C659.928 -396.943 690.513 -380.562 722.064 -367.71C728.121 -365.252 734.213 -362.899 740.288 -360.652C768.924 -350.03 798.42 -340.409 825.055 -325.555C833.605 -320.779 841.84 -315.495 849.635 -309.508C902.851 -268.634 928.572 -201.109 940.195 -134.514C941.038 -129.668 941.811 -124.84 942.531 -120.012C953.03 -48.7117 953.574 23.8176 970.306 91.4483C979.26 127.634 993.728 165.68 1025.93 185.608C1064.54 209.521 1115.7 199.777 1156.61 180.393C1184.45 167.208 1210.28 150.002 1237.55 136.131C1250.34 129.618 1263.48 123.841 1277.26 119.557C1364.98 92.3085 1464.61 133.551 1526.29 202.709C1587.97 271.885 1617.54 363.867 1633.39 455.147" stroke="url(#paint33_linear_60_786)" stroke-width="0.8669" stroke-miterlimit="10"/>
<path opacity="0.54" d="M633.997 -544.249C610.768 -515.209 615.596 -471.579 636.103 -440.345C637.929 -437.553 639.896 -434.867 641.95 -432.286C663.107 -405.88 693.498 -389.113 724.926 -375.857C730.948 -373.311 737.023 -370.906 743.098 -368.571C771.628 -357.615 801.054 -347.695 827.583 -332.719C836.099 -327.908 844.315 -322.588 852.076 -316.566C905.169 -275.482 930.627 -207.957 941.723 -141.257C942.531 -136.411 943.268 -131.565 943.935 -126.737C953.785 -55.3487 952.679 17.3385 968.129 86.0577C976.487 123.262 991.024 162.397 1023.65 182.904C1062.78 207.501 1114.89 197.353 1156.38 177.198C1184.61 163.485 1210.77 145.594 1238.42 131.092C1251.42 124.297 1264.72 118.24 1278.74 113.728C1367.87 85.0219 1469.5 126.791 1532.09 197.195C1594.68 267.6 1624.3 361.338 1640.17 454.181" stroke="url(#paint34_linear_60_786)" stroke-width="0.8669" stroke-miterlimit="10"/>
<path opacity="0.54" d="M638.193 -553.625C614.964 -524.637 619.459 -481.113 639.667 -449.615C641.476 -446.806 643.39 -444.085 645.444 -441.486C666.354 -414.817 696.535 -397.646 727.858 -384.021C733.862 -381.405 739.92 -378.929 745.959 -376.524C774.384 -365.235 803.723 -355.034 830.164 -339.917C838.662 -335.071 846.826 -329.716 854.586 -323.677C907.557 -282.382 932.751 -214.874 943.338 -148.051C944.111 -143.188 944.796 -138.342 945.428 -133.496C954.628 -62.0028 951.871 10.8072 966.04 80.615C973.8 118.837 988.408 159.079 1021.47 180.165C1061.13 205.465 1114.19 194.895 1156.26 173.967C1184.89 159.728 1211.37 141.135 1239.42 126.036C1252.59 118.943 1266.11 112.622 1280.35 107.882C1370.91 77.7181 1474.52 120.031 1538.02 191.665C1601.53 263.316 1631.22 358.793 1647.09 453.198" stroke="url(#paint35_linear_60_786)" stroke-width="0.8669" stroke-miterlimit="10"/>
<path opacity="0.54" d="M642.389 -563C617.071 -531.467 624.287 -482.781 648.902 -450.686C673.518 -418.609 711.371 -399.805 748.786 -384.46C786.201 -369.115 825.266 -355.719 857.062 -330.752C913.737 -286.209 938.317 -211.801 946.85 -140.238C955.4 -68.6569 950.958 4.2761 963.88 75.19C971.026 114.431 985.739 155.76 1019.22 177.426C1059.41 203.428 1113.42 192.438 1156.08 170.719C1198.74 149.001 1236.62 117.591 1281.88 102.017C1373.86 70.3792 1479.45 113.237 1543.87 186.117C1608.29 258.997 1638.03 356.229 1653.92 452.198" stroke="url(#paint36_linear_60_786)" stroke-width="0.8669" stroke-miterlimit="10"/>
</g>
</g>
<defs>
<linearGradient id="paint0_linear_60_786" x1="1531.5" y1="2094.31" x2="-384.948" y2="1612.69" gradientUnits="userSpaceOnUse">
<stop stop-color="#21367F"/>
<stop offset="0.288608" stop-color="#194E91"/>
<stop offset="0.9951" stop-color="#20A9D6"/>
</linearGradient>
<linearGradient id="paint1_linear_60_786" x1="20.3985" y1="-104.237" x2="402.294" y2="469.945" gradientUnits="userSpaceOnUse">
<stop stop-color="#7ED4EF"/>
<stop offset="0.2294" stop-color="#66BFE6"/>
<stop offset="0.711" stop-color="#298BD0"/>
<stop offset="1" stop-color="#0169C2"/>
</linearGradient>
<linearGradient id="paint2_linear_60_786" x1="32.2033" y1="-34.356" x2="244.981" y2="391.179" gradientUnits="userSpaceOnUse">
<stop stop-color="#7ED4EF"/>
<stop offset="0.2294" stop-color="#66BFE6"/>
<stop offset="0.711" stop-color="#298BD0"/>
<stop offset="1" stop-color="#0169C2"/>
</linearGradient>
<linearGradient id="paint3_linear_60_786" x1="527.544" y1="-141.015" x2="-158.693" y2="369.061" gradientUnits="userSpaceOnUse">
<stop stop-color="#7ED4EF"/>
<stop offset="0.2294" stop-color="#66BFE6"/>
<stop offset="0.711" stop-color="#298BD0"/>
<stop offset="1" stop-color="#0169C2"/>
</linearGradient>
<linearGradient id="paint4_linear_60_786" x1="564.755" y1="-195.125" x2="-121.482" y2="314.951" gradientUnits="userSpaceOnUse">
<stop stop-color="#7ED4EF"/>
<stop offset="0.2294" stop-color="#66BFE6"/>
<stop offset="0.711" stop-color="#298BD0"/>
<stop offset="1" stop-color="#0169C2"/>
</linearGradient>
<linearGradient id="paint5_linear_60_786" x1="1417.75" y1="510.129" x2="522.251" y2="-284.421" gradientUnits="userSpaceOnUse">
<stop stop-color="#7ED4EF"/>
<stop offset="0.2294" stop-color="#66BFE6"/>
<stop offset="0.711" stop-color="#298BD0"/>
<stop offset="1" stop-color="#0169C2"/>
</linearGradient>
<linearGradient id="paint6_linear_60_786" x1="1426.88" y1="506.588" x2="525.716" y2="-292.984" gradientUnits="userSpaceOnUse">
<stop stop-color="#7ED4EF"/>
<stop offset="0.2294" stop-color="#66BFE6"/>
<stop offset="0.711" stop-color="#298BD0"/>
<stop offset="1" stop-color="#0169C2"/>
</linearGradient>
<linearGradient id="paint7_linear_60_786" x1="1436" y1="503.05" x2="529.18" y2="-301.544" gradientUnits="userSpaceOnUse">
<stop stop-color="#7ED4EF"/>
<stop offset="0.2294" stop-color="#66BFE6"/>
<stop offset="0.711" stop-color="#298BD0"/>
<stop offset="1" stop-color="#0169C2"/>
</linearGradient>
<linearGradient id="paint8_linear_60_786" x1="1444.41" y1="500.321" x2="531.927" y2="-309.295" gradientUnits="userSpaceOnUse">
<stop stop-color="#7ED4EF"/>
<stop offset="0.2294" stop-color="#66BFE6"/>
<stop offset="0.711" stop-color="#298BD0"/>
<stop offset="1" stop-color="#0169C2"/>
</linearGradient>
<linearGradient id="paint9_linear_60_786" x1="1451.59" y1="498.973" x2="533.447" y2="-315.664" gradientUnits="userSpaceOnUse">
<stop stop-color="#7ED4EF"/>
<stop offset="0.2294" stop-color="#66BFE6"/>
<stop offset="0.711" stop-color="#298BD0"/>
<stop offset="1" stop-color="#0169C2"/>
</linearGradient>
<linearGradient id="paint10_linear_60_786" x1="1458.69" y1="497.708" x2="534.894" y2="-321.951" gradientUnits="userSpaceOnUse">
<stop stop-color="#7ED4EF"/>
<stop offset="0.2294" stop-color="#66BFE6"/>
<stop offset="0.711" stop-color="#298BD0"/>
<stop offset="1" stop-color="#0169C2"/>
</linearGradient>
<linearGradient id="paint11_linear_60_786" x1="1465.72" y1="496.53" x2="536.262" y2="-328.15" gradientUnits="userSpaceOnUse">
<stop stop-color="#7ED4EF"/>
<stop offset="0.2294" stop-color="#66BFE6"/>
<stop offset="0.711" stop-color="#298BD0"/>
<stop offset="1" stop-color="#0169C2"/>
</linearGradient>
<linearGradient id="paint12_linear_60_786" x1="1472.66" y1="495.447" x2="537.548" y2="-334.254" gradientUnits="userSpaceOnUse">
<stop stop-color="#7ED4EF"/>
<stop offset="0.2294" stop-color="#66BFE6"/>
<stop offset="0.711" stop-color="#298BD0"/>
<stop offset="1" stop-color="#0169C2"/>
</linearGradient>
<linearGradient id="paint13_linear_60_786" x1="1479.43" y1="494.566" x2="538.653" y2="-340.155" gradientUnits="userSpaceOnUse">
<stop stop-color="#7ED4EF"/>
<stop offset="0.2294" stop-color="#66BFE6"/>
<stop offset="0.711" stop-color="#298BD0"/>
<stop offset="1" stop-color="#0169C2"/>
</linearGradient>
<linearGradient id="paint14_linear_60_786" x1="1486.04" y1="493.851" x2="539.61" y2="-345.891" gradientUnits="userSpaceOnUse">
<stop stop-color="#7ED4EF"/>
<stop offset="0.2294" stop-color="#66BFE6"/>
<stop offset="0.711" stop-color="#298BD0"/>
<stop offset="1" stop-color="#0169C2"/>
</linearGradient>
<linearGradient id="paint15_linear_60_786" x1="1492.57" y1="493.238" x2="540.478" y2="-351.525" gradientUnits="userSpaceOnUse">
<stop stop-color="#7ED4EF"/>
<stop offset="0.2294" stop-color="#66BFE6"/>
<stop offset="0.711" stop-color="#298BD0"/>
<stop offset="1" stop-color="#0169C2"/>
</linearGradient>
<linearGradient id="paint16_linear_60_786" x1="1499.03" y1="492.693" x2="541.285" y2="-357.09" gradientUnits="userSpaceOnUse">
<stop stop-color="#7ED4EF"/>
<stop offset="0.2294" stop-color="#66BFE6"/>
<stop offset="0.711" stop-color="#298BD0"/>
<stop offset="1" stop-color="#0169C2"/>
</linearGradient>
<linearGradient id="paint17_linear_60_786" x1="1505.45" y1="492.2" x2="542.046" y2="-362.604" gradientUnits="userSpaceOnUse">
<stop stop-color="#7ED4EF"/>
<stop offset="0.2294" stop-color="#66BFE6"/>
<stop offset="0.711" stop-color="#298BD0"/>
<stop offset="1" stop-color="#0169C2"/>
</linearGradient>
<linearGradient id="paint18_linear_60_786" x1="1511.84" y1="491.744" x2="542.774" y2="-368.08" gradientUnits="userSpaceOnUse">
<stop stop-color="#7ED4EF"/>
<stop offset="0.2294" stop-color="#66BFE6"/>
<stop offset="0.711" stop-color="#298BD0"/>
<stop offset="1" stop-color="#0169C2"/>
</linearGradient>
<linearGradient id="paint19_linear_60_786" x1="1518.2" y1="491.317" x2="543.475" y2="-373.527" gradientUnits="userSpaceOnUse">
<stop stop-color="#7ED4EF"/>
<stop offset="0.2294" stop-color="#66BFE6"/>
<stop offset="0.711" stop-color="#298BD0"/>
<stop offset="1" stop-color="#0169C2"/>
</linearGradient>
<linearGradient id="paint20_linear_60_786" x1="1524.54" y1="490.913" x2="544.157" y2="-378.951" gradientUnits="userSpaceOnUse">
<stop stop-color="#7ED4EF"/>
<stop offset="0.2294" stop-color="#66BFE6"/>
<stop offset="0.711" stop-color="#298BD0"/>
<stop offset="1" stop-color="#0169C2"/>
</linearGradient>
<linearGradient id="paint21_linear_60_786" x1="1530.86" y1="490.528" x2="544.822" y2="-384.356" gradientUnits="userSpaceOnUse">
<stop stop-color="#7ED4EF"/>
<stop offset="0.2294" stop-color="#66BFE6"/>
<stop offset="0.711" stop-color="#298BD0"/>
<stop offset="1" stop-color="#0169C2"/>
</linearGradient>
<linearGradient id="paint22_linear_60_786" x1="1537.17" y1="490.157" x2="545.474" y2="-389.746" gradientUnits="userSpaceOnUse">
<stop stop-color="#7ED4EF"/>
<stop offset="0.2294" stop-color="#66BFE6"/>
<stop offset="0.711" stop-color="#298BD0"/>
<stop offset="1" stop-color="#0169C2"/>
</linearGradient>
<linearGradient id="paint23_linear_60_786" x1="1543.47" y1="489.799" x2="546.114" y2="-395.124" gradientUnits="userSpaceOnUse">
<stop stop-color="#7ED4EF"/>
<stop offset="0.2294" stop-color="#66BFE6"/>
<stop offset="0.711" stop-color="#298BD0"/>
<stop offset="1" stop-color="#0169C2"/>
</linearGradient>
<linearGradient id="paint24_linear_60_786" x1="1549.76" y1="489.45" x2="546.746" y2="-400.493" gradientUnits="userSpaceOnUse">
<stop stop-color="#7ED4EF"/>
<stop offset="0.2294" stop-color="#66BFE6"/>
<stop offset="0.711" stop-color="#298BD0"/>
<stop offset="1" stop-color="#0169C2"/>
</linearGradient>
<linearGradient id="paint25_linear_60_786" x1="1556.04" y1="489.111" x2="547.37" y2="-405.852" gradientUnits="userSpaceOnUse">
<stop stop-color="#7ED4EF"/>
<stop offset="0.2294" stop-color="#66BFE6"/>
<stop offset="0.711" stop-color="#298BD0"/>
<stop offset="1" stop-color="#0169C2"/>
</linearGradient>
<linearGradient id="paint26_linear_60_786" x1="1562.31" y1="488.779" x2="547.987" y2="-411.204" gradientUnits="userSpaceOnUse">
<stop stop-color="#7ED4EF"/>
<stop offset="0.2294" stop-color="#66BFE6"/>
<stop offset="0.711" stop-color="#298BD0"/>
<stop offset="1" stop-color="#0169C2"/>
</linearGradient>
<linearGradient id="paint27_linear_60_786" x1="1568.58" y1="488.453" x2="548.599" y2="-416.549" gradientUnits="userSpaceOnUse">
<stop stop-color="#7ED4EF"/>
<stop offset="0.2294" stop-color="#66BFE6"/>
<stop offset="0.711" stop-color="#298BD0"/>
<stop offset="1" stop-color="#0169C2"/>
</linearGradient>
<linearGradient id="paint28_linear_60_786" x1="1574.85" y1="488.132" x2="549.206" y2="-421.89" gradientUnits="userSpaceOnUse">
<stop stop-color="#7ED4EF"/>
<stop offset="0.2294" stop-color="#66BFE6"/>
<stop offset="0.711" stop-color="#298BD0"/>
<stop offset="1" stop-color="#0169C2"/>
</linearGradient>
<linearGradient id="paint29_linear_60_786" x1="1581.11" y1="487.815" x2="549.809" y2="-427.226" gradientUnits="userSpaceOnUse">
<stop stop-color="#7ED4EF"/>
<stop offset="0.2294" stop-color="#66BFE6"/>
<stop offset="0.711" stop-color="#298BD0"/>
<stop offset="1" stop-color="#0169C2"/>
</linearGradient>
<linearGradient id="paint30_linear_60_786" x1="1587.36" y1="487.503" x2="550.409" y2="-432.557" gradientUnits="userSpaceOnUse">
<stop stop-color="#7ED4EF"/>
<stop offset="0.2294" stop-color="#66BFE6"/>
<stop offset="0.711" stop-color="#298BD0"/>
<stop offset="1" stop-color="#0169C2"/>
</linearGradient>
<linearGradient id="paint31_linear_60_786" x1="1593.62" y1="487.195" x2="551.005" y2="-437.885" gradientUnits="userSpaceOnUse">
<stop stop-color="#7ED4EF"/>
<stop offset="0.2294" stop-color="#66BFE6"/>
<stop offset="0.711" stop-color="#298BD0"/>
<stop offset="1" stop-color="#0169C2"/>
</linearGradient>
<linearGradient id="paint32_linear_60_786" x1="1599.87" y1="486.89" x2="551.598" y2="-443.209" gradientUnits="userSpaceOnUse">
<stop stop-color="#7ED4EF"/>
<stop offset="0.2294" stop-color="#66BFE6"/>
<stop offset="0.711" stop-color="#298BD0"/>
<stop offset="1" stop-color="#0169C2"/>
</linearGradient>
<linearGradient id="paint33_linear_60_786" x1="1606.12" y1="486.588" x2="552.189" y2="-448.531" gradientUnits="userSpaceOnUse">
<stop stop-color="#7ED4EF"/>
<stop offset="0.2294" stop-color="#66BFE6"/>
<stop offset="0.711" stop-color="#298BD0"/>
<stop offset="1" stop-color="#0169C2"/>
</linearGradient>
<linearGradient id="paint34_linear_60_786" x1="1612.36" y1="486.287" x2="552.777" y2="-453.85" gradientUnits="userSpaceOnUse">
<stop stop-color="#7ED4EF"/>
<stop offset="0.2294" stop-color="#66BFE6"/>
<stop offset="0.711" stop-color="#298BD0"/>
<stop offset="1" stop-color="#0169C2"/>
</linearGradient>
<linearGradient id="paint35_linear_60_786" x1="1618.6" y1="485.99" x2="553.363" y2="-459.167" gradientUnits="userSpaceOnUse">
<stop stop-color="#7ED4EF"/>
<stop offset="0.2294" stop-color="#66BFE6"/>
<stop offset="0.711" stop-color="#298BD0"/>
<stop offset="1" stop-color="#0169C2"/>
</linearGradient>
<linearGradient id="paint36_linear_60_786" x1="1624.85" y1="485.695" x2="553.948" y2="-464.481" gradientUnits="userSpaceOnUse">
<stop stop-color="#7ED4EF"/>
<stop offset="0.2294" stop-color="#66BFE6"/>
<stop offset="0.711" stop-color="#298BD0"/>
<stop offset="1" stop-color="#0169C2"/>
</linearGradient>
<clipPath id="clip0_60_786">
<rect width="1440" height="1148" fill="white"/>
</clipPath>
</defs>
</svg>
