<svg width="375" height="1960" viewBox="0 0 375 1960" fill="none" xmlns="http://www.w3.org/2000/svg">
<g clip-path="url(#clip0_62_171)">
<rect width="375" height="1960" fill="url(#paint0_linear_62_171)"/>
<path d="M23.9249 297.77C48.5579 279.475 76.139 264.537 101.628 247.131C127.116 229.724 151.538 208.525 162.3 185.504C181.432 144.599 152.782 109.355 178.498 68.8898C190.725 49.6482 212.793 33.5655 232.498 17.1631C252.202 0.76075 271.653 -19.0709 273.663 -37.6673C275.352 -53.2501 263.706 -64.4998 247.322 -68.5489C230.946 -72.6074 210.48 -70.3713 190.273 -65.8243C116.814 -49.3088 42.8329 -2.62964 -9.39707 51.8469C-61.627 106.323 -93.786 167.766 -111.583 226.459C-129.381 285.145 -133.706 341.737 -136.844 397.616C-137.54 409.993 -138.153 422.534 -134.345 433.242C-130.537 443.951 -121.673 452.774 -107.442 454.527C-97.3725 455.772 -77.7792 452.779 -70.7229 441.739C-65.0885 432.918 -66.6242 420.504 -63.7585 411.575C-55.5713 386.017 -39.61 359.695 -17.8665 335.633C-5.64468 322.108 8.42819 309.282 23.9249 297.77Z" fill="url(#paint1_linear_62_171)"/>
<path d="M1.27508 254.829C25.9081 236.534 53.4892 221.596 78.9778 204.19C104.466 186.783 128.888 165.584 139.65 142.563C158.782 101.658 130.132 66.4141 155.848 25.9489C168.076 6.70729 190.143 -9.37546 209.848 -25.7778C229.553 -42.1802 249.003 -62.0118 251.014 -80.6083C252.702 -96.191 241.057 -107.441 224.672 -111.49C208.296 -115.548 187.831 -113.312 167.623 -108.765C94.1645 -92.2497 20.1831 -45.5706 -32.0469 8.90599C-84.2768 63.3825 -116.436 124.825 -134.233 183.518C-152.031 242.204 -156.356 298.796 -159.493 354.675C-160.19 367.052 -160.803 379.593 -156.995 390.301C-153.186 401.01 -144.323 409.833 -130.091 411.586C-120.022 412.831 -100.429 409.838 -93.3727 398.798C-87.7383 389.977 -89.274 377.563 -86.4083 368.634C-78.2211 343.077 -62.2598 316.754 -40.5163 292.692C-28.2945 279.167 -14.2216 266.341 1.27508 254.829Z" fill="url(#paint2_linear_62_171)"/>
<path d="M-21.23 130.232C-7.74305 130.412 3.31257 134.009 16.1563 135.128C29 136.248 44.6033 134.553 61.4532 125.435C91.3947 109.238 116.924 74.4374 146.584 61.5503C160.687 55.4218 172.545 55.7713 184.622 54.8338C196.699 53.8963 211.276 50.7426 224.848 40.2907C236.221 31.534 244.355 19.2711 247.21 9.2259C250.073 -0.820943 248.321 -8.90424 244.886 -15.4543C232.408 -39.2735 197.931 -44.8745 157.898 -35.658C117.865 -26.4414 72.8709 -3.69217 29.9672 24.0071C-12.9316 51.7022 -54.224 84.3382 -94.9888 117.086C-104.019 124.339 -113.167 131.731 -120.953 140.043C-128.738 148.355 -135.12 157.848 -136.314 165.494C-137.162 170.906 -134.864 178.124 -126.771 174.626C-120.306 171.83 -111.263 163.523 -104.735 159.383C-86.0501 147.523 -66.7612 138.786 -49.0869 134.103C-39.1523 131.47 -29.7162 130.12 -21.23 130.232Z" fill="url(#paint3_linear_62_171)"/>
<path d="M-3.83583 104.938C9.65112 105.118 20.7067 108.715 33.5505 109.834C46.3942 110.953 61.9975 109.258 78.8474 100.141C108.789 83.9432 134.318 49.143 163.978 36.2559C178.081 30.1274 189.939 30.4769 202.016 29.5394C214.094 28.6019 228.67 25.4482 242.242 14.9962C253.615 6.23953 261.749 -6.02335 264.605 -16.0685C267.467 -26.1154 265.715 -34.1987 262.28 -40.7488C249.802 -64.5679 215.325 -70.169 175.292 -60.9524C135.259 -51.7358 90.2651 -28.9866 47.3614 -1.28733C4.46257 26.4078 -36.8299 59.0438 -77.5947 91.7916C-86.6245 99.0447 -95.7726 106.436 -103.558 114.748C-111.344 123.061 -117.726 132.554 -118.92 140.2C-119.768 145.611 -117.47 152.829 -109.377 149.332C-102.912 146.535 -93.8684 138.229 -87.3405 134.088C-68.6559 122.229 -49.367 113.491 -31.6927 108.808C-21.7582 106.176 -12.3221 104.826 -3.83583 104.938Z" fill="url(#paint4_linear_62_171)"/>
</g>
<defs>
<linearGradient id="paint0_linear_62_171" x1="398.828" y1="21.9241" x2="-129.126" y2="59.2615" gradientUnits="userSpaceOnUse">
<stop stop-color="#21367F"/>
<stop offset="0.288608" stop-color="#194E91"/>
<stop offset="0.9951" stop-color="#20A9D6"/>
</linearGradient>
<linearGradient id="paint1_linear_62_171" x1="-19.2096" y1="0.266633" x2="147.368" y2="238.125" gradientUnits="userSpaceOnUse">
<stop stop-color="#7ED4EF"/>
<stop offset="0.2294" stop-color="#66BFE6"/>
<stop offset="0.711" stop-color="#298BD0"/>
<stop offset="1" stop-color="#0169C2"/>
</linearGradient>
<linearGradient id="paint2_linear_62_171" x1="-14.582" y1="24.6147" x2="82.0993" y2="199.519" gradientUnits="userSpaceOnUse">
<stop stop-color="#7ED4EF"/>
<stop offset="0.2294" stop-color="#66BFE6"/>
<stop offset="0.711" stop-color="#298BD0"/>
<stop offset="1" stop-color="#0169C2"/>
</linearGradient>
<linearGradient id="paint3_linear_62_171" x1="216.915" y1="-50.2866" x2="-100.33" y2="214.789" gradientUnits="userSpaceOnUse">
<stop stop-color="#7ED4EF"/>
<stop offset="0.2294" stop-color="#66BFE6"/>
<stop offset="0.711" stop-color="#298BD0"/>
<stop offset="1" stop-color="#0169C2"/>
</linearGradient>
<linearGradient id="paint4_linear_62_171" x1="234.309" y1="-75.5811" x2="-82.9359" y2="189.495" gradientUnits="userSpaceOnUse">
<stop stop-color="#7ED4EF"/>
<stop offset="0.2294" stop-color="#66BFE6"/>
<stop offset="0.711" stop-color="#298BD0"/>
<stop offset="1" stop-color="#0169C2"/>
</linearGradient>
<clipPath id="clip0_62_171">
<rect width="375" height="1960" fill="white"/>
</clipPath>
</defs>
</svg>
